<svg xmlns="http://www.w3.org/2000/svg" width="1200" height="840" viewBox="0 0 1200 840" role="img" aria-labelledby="t d">
<title id="t">VitalLink Clinical SLA and Device Health Tableau dashboard</title>
<desc id="d">Dashboard showing 7.7 hour overall response time, 19.8 percent overall SLA compliance, 8,425 SLA breaches, 54.2 percent critical SLA compliance and 34.9 percent warning alert rate.</desc>
<rect width="1200" height="840" fill="#338fc7"/><rect x="20" y="20" width="1160" height="800" rx="20" fill="#f1f1f1"/>
<rect x="38" y="38" width="185" height="764" rx="28" fill="#ffffff"/><text x="72" y="105" font-family="Arial" font-size="30" font-weight="700" fill="#163f8f">⌁ VitalLink</text>
<rect x="50" y="185" width="160" height="40" fill="#0b78bd"/><text x="78" y="211" font-family="Arial" font-size="18">Patient Alerts</text>
<rect x="50" y="255" width="160" height="40" fill="#75b4df"/><text x="66" y="281" font-family="Arial" font-size="18">Clinical &amp; Device</text>
<g font-family="Arial" font-size="17" fill="#111"><text x="50" y="440">Connectivity</text><text x="50" y="530">Model Name</text><text x="50" y="620">Hub Region</text><text x="50" y="710">Clinician Name</text></g>
<g fill="white" stroke="#cbd5e1"><rect x="50" y="455" width="160" height="34"/><rect x="50" y="545" width="160" height="34"/><rect x="50" y="635" width="160" height="34"/><rect x="50" y="725" width="160" height="34"/></g>
<g font-family="Arial" font-size="16" fill="#666"><text x="60" y="478">(All)</text><text x="60" y="568">(All)</text><text x="60" y="658">(All)</text><text x="60" y="748">(All)</text></g>
<rect x="240" y="38" width="920" height="105" rx="20" fill="#ffffff"/><text x="365" y="83" font-family="Arial" font-size="23" font-weight="700">VitalLink Telehealth Solutions | Clinical SLA &amp; Device Health</text><text x="260" y="120" font-family="Arial" font-size="16" font-style="italic">Response efficiency and telehealth fleet performance</text>
<g font-family="Arial"><rect x="240" y="155" width="160" height="155" rx="24" fill="white"/><text x="255" y="185" font-size="13" font-weight="700">Overall Avg Response Time</text><text x="255" y="258" font-size="42" fill="#333">7.7</text><text x="330" y="258" font-size="20">Hrs</text>
<rect x="420" y="155" width="160" height="155" rx="24" fill="white"/><text x="435" y="185" font-size="13" font-weight="700">Overall SLA Compliance %</text><text x="435" y="258" font-size="42" fill="#333">19.8%</text>
<rect x="600" y="155" width="160" height="155" rx="24" fill="white"/><text x="615" y="185" font-size="13" font-weight="700">SLA Breaches</text><text x="615" y="258" font-size="42" fill="#333">8,425</text>
<rect x="780" y="155" width="160" height="155" rx="24" fill="white"/><text x="795" y="185" font-size="13" font-weight="700">Critical SLA Compliance %</text><text x="795" y="258" font-size="42" fill="#333">54.2%</text>
<rect x="960" y="155" width="180" height="155" rx="24" fill="white"/><text x="975" y="185" font-size="13" font-weight="700">Warning Alert Rate</text><text x="975" y="258" font-size="42" fill="#333">34.9%</text></g>
<rect x="240" y="325" width="445" height="225" rx="28" fill="white"/><text x="260" y="360" font-family="Arial" font-size="17">Critical Alert Avg Response Time by Hub</text>
<line x1="595" y1="380" x2="595" y2="525" stroke="#e59b9b" stroke-width="1"/><text x="540" y="535" font-family="Arial" font-size="12" fill="#666">2-Hour SLA</text>
<g font-family="Arial" font-size="13"><text x="260" y="405">East Hub</text><line x1="320" y1="398" x2="570" y2="398" stroke="#2d8dcc" stroke-width="4"/><text x="575" y="405">1.8 hrs</text>
<text x="260" y="450">North Hub</text><line x1="320" y1="443" x2="560" y2="443" stroke="#2d8dcc" stroke-width="4"/><text x="565" y="450">1.7 hrs</text>
<text x="260" y="495">South Hub</text><line x1="320" y1="488" x2="582" y2="488" stroke="#2d8dcc" stroke-width="4"/><text x="587" y="495">1.9 hrs</text>
<text x="260" y="530">West Hub</text><line x1="320" y1="523" x2="585" y2="523" stroke="#2d8dcc" stroke-width="4"/><text x="590" y="530">1.9 hrs</text></g>
<rect x="700" y="325" width="440" height="225" rx="28" fill="white"/><text x="720" y="360" font-family="Arial" font-size="17">Clinician Workload &amp; Critical SLA Compliance</text>
<g font-family="Arial" font-size="12"><text x="725" y="397">Nurse Emily Stone</text><line x1="840" y1="392" x2="1075" y2="392" stroke="#68a8d3" stroke-width="2"/><text x="725" y="422">Dr. Lucy Brown</text><line x1="840" y1="417" x2="1070" y2="417" stroke="#68a8d3" stroke-width="2"/><text x="1080" y="422">944</text>
<text x="725" y="447">Dr. Robert Vance</text><line x1="840" y1="442" x2="1066" y2="442" stroke="#68a8d3" stroke-width="2"/><text x="725" y="472">Dr. Marcus Vance</text><line x1="840" y1="467" x2="1060" y2="467" stroke="#68a8d3" stroke-width="2"/><text x="725" y="497">Dr. Sarah Jenkins</text><line x1="840" y1="492" x2="1055" y2="492" stroke="#68a8d3" stroke-width="2"/><text x="725" y="522">Nurse John Doe</text><line x1="840" y1="517" x2="1050" y2="517" stroke="#68a8d3" stroke-width="2"/><text x="1060" y="522">868</text></g>
<rect x="240" y="565" width="445" height="225" rx="28" fill="white"/><text x="260" y="600" font-family="Arial" font-size="17">Warning Alert Rate by Device Model</text>
<g font-family="Arial" font-size="13"><text x="275" y="645">CelluPulse Pro</text><line x1="370" y1="638" x2="635" y2="638" stroke="#2d8dcc" stroke-width="4"/><text x="640" y="645">37.0%</text><text x="275" y="690">VastRead Cellular</text><line x1="370" y1="683" x2="625" y2="683" stroke="#2d8dcc" stroke-width="4"/><text x="630" y="690">35.6%</text><text x="275" y="735">BioVitals v4</text><line x1="370" y1="728" x2="610" y2="728" stroke="#2d8dcc" stroke-width="4"/><text x="615" y="735">34.2%</text><text x="275" y="775">GlucoTrack X</text><line x1="370" y1="768" x2="600" y2="768" stroke="#2d8dcc" stroke-width="4"/><text x="605" y="775">33.3%</text></g>
<rect x="700" y="565" width="440" height="225" rx="28" fill="white"/><text x="720" y="600" font-family="Arial" font-size="17">Battery Level vs Warning Alert Rate</text>
<rect x="720" y="620" width="395" height="145" fill="none" stroke="#aaa"/><line x1="720" y1="690" x2="1115" y2="690" stroke="#f39c2f" stroke-width="3"/>
<g fill="#5b8fbd"><circle cx="760" cy="665" r="4"/><circle cx="790" cy="675" r="4"/><circle cx="820" cy="655" r="4"/><circle cx="850" cy="682" r="4"/><circle cx="885" cy="670" r="4"/><circle cx="930" cy="702" r="4"/><circle cx="990" cy="675" r="4"/><circle cx="1035" cy="710" r="4"/><circle cx="1070" cy="660" r="4"/></g>
<g fill="#f2a23c"><circle cx="775" cy="682" r="4"/><circle cx="835" cy="692" r="4"/><circle cx="875" cy="660" r="4"/><circle cx="905" cy="675" r="4"/><circle cx="950" cy="690" r="4"/><circle cx="1010" cy="690" r="4"/><circle cx="1050" cy="675" r="4"/><circle cx="1090" cy="700" r="4"/></g>
<g font-family="Arial" font-size="12"><text x="700" y="635">40%</text><text x="700" y="690">30%</text><text x="700" y="745">20%</text></g>
</svg>